<svg xmlns="http://www.w3.org/2000/svg" viewBox="742 169 558 558"><style>:root{color:#1a0c09}@media (prefers-color-scheme: dark){:root{color:#FDFBF7}}</style><path fill="currentColor" fill-rule="nonzero" d="M 1029.726562 187.546875 L 1070.507812 187.546875 L 1094.976562 191.625 L 1090.898438 195.703125 L 1084.78125 197.742188 L 1013.414062 199.777344 L 968.554688 209.972656 L 942.046875 220.164062 L 903.304688 240.550781 L 870.679688 267.050781 L 854.367188 283.359375 L 838.054688 305.785156 L 823.78125 328.207031 L 807.46875 364.902344 L 799.3125 391.402344 L 795.234375 411.789062 L 793.195312 432.175781 L 793.195312 470.90625 L 799.3125 501.488281 L 809.507812 527.988281 L 825.820312 556.527344 L 854.367188 587.105469 L 872.71875 603.414062 L 893.109375 617.683594 L 909.421875 627.878906 L 931.851562 638.070312 L 950.203125 642.148438 L 980.789062 642.148438 L 999.140625 633.992188 L 1021.570312 621.761719 L 1041.960938 615.644531 L 1054.195312 613.609375 L 1090.898438 611.570312 L 1125.5625 603.414062 L 1141.875 597.300781 L 1152.070312 597.300781 L 1156.148438 601.375 L 1156.148438 615.644531 L 1147.992188 627.878906 L 1131.679688 640.109375 L 1107.210938 650.300781 L 1084.78125 656.417969 L 1084.78125 658.457031 L 1097.015625 660.496094 L 1117.40625 660.496094 L 1147.992188 652.339844 L 1170.421875 640.109375 L 1186.734375 627.878906 L 1213.242188 609.53125 L 1219.359375 605.453125 L 1243.828125 601.375 L 1254.023438 601.375 L 1256.0625 603.414062 L 1256.0625 617.683594 L 1237.710938 638.070312 L 1219.359375 656.417969 L 1184.695312 680.878906 L 1158.1875 697.1875 L 1115.367188 711.457031 L 1084.78125 719.613281 L 1068.46875 721.652344 L 1027.6875 721.652344 L 1001.179688 717.574219 L 966.515625 709.421875 L 931.851562 695.148438 L 903.304688 678.839844 L 880.875 662.53125 L 850.289062 636.03125 L 827.859375 607.492188 L 813.585938 585.066406 L 797.273438 546.335938 L 789.117188 521.871094 L 780.960938 483.140625 L 778.921875 450.523438 L 783 413.828125 L 789.117188 385.289062 L 803.390625 344.515625 L 819.703125 313.9375 L 840.09375 285.398438 L 858.445312 265.011719 L 868.640625 254.820312 L 891.070312 236.472656 L 919.617188 218.125 L 962.4375 199.777344 L 1001.179688 189.585938 Z M 817.664062 562.644531 L 819.703125 572.835938 L 831.9375 595.261719 L 852.328125 623.800781 L 874.757812 646.226562 L 903.304688 668.648438 L 933.890625 686.996094 L 966.515625 699.226562 L 1007.296875 709.421875 L 1021.570312 711.457031 L 1080.703125 711.457031 L 1115.367188 703.304688 L 1141.875 693.113281 L 1174.5 676.804688 L 1198.96875 660.496094 L 1229.554688 633.992188 L 1243.828125 617.683594 L 1245.867188 611.570312 L 1235.671875 609.53125 L 1217.320312 617.683594 L 1178.578125 646.226562 L 1152.070312 660.496094 L 1119.445312 670.6875 L 1097.015625 670.6875 L 1076.625 664.570312 L 1072.546875 660.496094 L 1070.507812 650.300781 L 1094.976562 644.1875 L 1125.5625 633.992188 L 1137.796875 625.839844 L 1145.953125 615.644531 L 1147.992188 607.492188 L 1133.71875 609.53125 L 1119.445312 613.609375 L 1090.898438 621.761719 L 1060.3125 625.839844 L 1052.15625 627.878906 L 1041.960938 625.839844 L 1017.492188 633.992188 L 993.023438 648.261719 L 976.710938 652.339844 L 948.164062 652.339844 L 925.734375 646.226562 L 891.070312 627.878906 L 866.601562 611.570312 L 825.820312 570.796875 Z"/><path fill="currentColor" fill-rule="nonzero" d="M 1184.695312 173.277344 L 1217.320312 177.355469 L 1256.0625 189.585938 L 1262.179688 193.664062 L 1262.179688 201.816406 L 1258.101562 203.855469 L 1217.320312 203.855469 L 1217.320312 207.933594 L 1225.476562 209.972656 L 1225.476562 216.085938 L 1221.398438 218.125 L 1203.046875 218.125 L 1190.8125 214.050781 L 1180.617188 209.972656 L 1162.265625 212.011719 L 1101.09375 254.820312 L 1070.507812 271.128906 L 1056.234375 305.785156 L 1044 324.132812 L 1041.960938 330.246094 L 1041.960938 362.863281 L 1052.15625 360.824219 L 1060.3125 350.632812 L 1068.46875 309.863281 L 1082.742188 289.476562 L 1094.976562 279.28125 L 1109.25 275.207031 L 1127.601562 277.246094 L 1143.914062 285.398438 L 1156.148438 299.667969 L 1160.226562 311.898438 L 1160.226562 330.246094 L 1152.070312 352.671875 L 1137.796875 373.058594 L 1119.445312 387.328125 L 1103.132812 389.367188 L 1107.210938 399.558594 L 1119.445312 407.710938 L 1129.640625 417.90625 L 1137.796875 424.019531 L 1137.796875 428.097656 L 1143.914062 430.136719 L 1150.03125 440.328125 L 1152.070312 450.523438 L 1152.070312 546.335938 L 1150.03125 572.835938 L 1141.875 568.757812 L 1139.835938 560.605469 L 1139.835938 448.484375 L 1133.71875 436.253906 L 1121.484375 426.058594 L 1099.054688 409.75 L 1092.9375 397.519531 L 1092.9375 385.289062 L 1103.132812 368.980469 L 1105.171875 377.132812 L 1119.445312 375.09375 L 1135.757812 360.824219 L 1147.992188 336.363281 L 1150.03125 318.015625 L 1143.914062 301.707031 L 1129.640625 289.476562 L 1125.5625 287.4375 L 1107.210938 287.4375 L 1088.859375 295.589844 L 1078.664062 313.9375 L 1072.546875 346.554688 L 1060.3125 366.941406 L 1054.195312 373.058594 L 1046.039062 375.09375 L 1015.453125 375.09375 L 1011.375 371.019531 L 1027.6875 362.863281 L 1029.726562 360.824219 L 1031.765625 328.207031 L 1044 307.824219 L 1060.3125 271.128906 L 1078.664062 254.820312 L 1101.09375 242.589844 L 1129.640625 222.203125 L 1152.070312 207.933594 L 1166.34375 199.777344 L 1182.65625 199.777344 L 1198.96875 205.894531 L 1205.085938 205.894531 L 1203.046875 199.777344 L 1211.203125 195.703125 L 1229.554688 195.703125 L 1223.4375 189.585938 L 1205.085938 185.507812 L 1174.5 185.507812 L 1156.148438 191.625 L 1129.640625 201.816406 L 1090.898438 220.164062 L 1058.273438 238.511719 L 1041.960938 250.742188 L 1029.726562 269.089844 L 1019.53125 285.398438 L 997.101562 326.171875 L 980.789062 368.980469 L 976.710938 403.636719 L 966.515625 438.292969 L 966.515625 554.488281 L 960.398438 585.066406 L 948.164062 627.878906 L 940.007812 625.839844 L 948.164062 589.144531 L 954.28125 564.683594 L 956.320312 548.375 L 956.320312 519.832031 L 954.28125 456.636719 L 958.359375 428.097656 L 966.515625 401.597656 L 974.671875 350.632812 L 1007.296875 285.398438 L 1029.726562 252.78125 L 1044 236.472656 L 1066.429688 222.203125 L 1094.976562 205.894531 L 1133.71875 189.585938 L 1164.304688 177.355469 Z"/></svg>
