<svg xmlns="http://www.w3.org/2000/svg" xmlns:xlink="http://www.w3.org/1999/xlink" width="2784" zoomAndPan="magnify" viewBox="614 143 870 890" height="1536" preserveAspectRatio="xMidYMid meet" version="1.0"><path fill="#c06020" d="M 1029.726562 187.546875 L 1070.507812 187.546875 L 1094.976562 191.625 L 1090.898438 195.703125 L 1084.78125 197.742188 L 1013.414062 199.777344 L 968.554688 209.972656 L 942.046875 220.164062 L 903.304688 240.550781 L 870.679688 267.050781 L 854.367188 283.359375 L 838.054688 305.785156 L 823.78125 328.207031 L 807.46875 364.902344 L 799.3125 391.402344 L 795.234375 411.789062 L 793.195312 432.175781 L 793.195312 470.90625 L 799.3125 501.488281 L 809.507812 527.988281 L 825.820312 556.527344 L 854.367188 587.105469 L 872.71875 603.414062 L 893.109375 617.683594 L 909.421875 627.878906 L 931.851562 638.070312 L 950.203125 642.148438 L 980.789062 642.148438 L 999.140625 633.992188 L 1021.570312 621.761719 L 1041.960938 615.644531 L 1054.195312 613.609375 L 1090.898438 611.570312 L 1125.5625 603.414062 L 1141.875 597.300781 L 1152.070312 597.300781 L 1156.148438 601.375 L 1156.148438 615.644531 L 1147.992188 627.878906 L 1131.679688 640.109375 L 1107.210938 650.300781 L 1084.78125 656.417969 L 1084.78125 658.457031 L 1097.015625 660.496094 L 1117.40625 660.496094 L 1147.992188 652.339844 L 1170.421875 640.109375 L 1186.734375 627.878906 L 1213.242188 609.53125 L 1219.359375 605.453125 L 1243.828125 601.375 L 1254.023438 601.375 L 1256.0625 603.414062 L 1256.0625 617.683594 L 1237.710938 638.070312 L 1219.359375 656.417969 L 1184.695312 680.878906 L 1158.1875 697.1875 L 1115.367188 711.457031 L 1084.78125 719.613281 L 1068.46875 721.652344 L 1027.6875 721.652344 L 1001.179688 717.574219 L 966.515625 709.421875 L 931.851562 695.148438 L 903.304688 678.839844 L 880.875 662.53125 L 850.289062 636.03125 L 827.859375 607.492188 L 813.585938 585.066406 L 797.273438 546.335938 L 789.117188 521.871094 L 780.960938 483.140625 L 778.921875 450.523438 L 783 413.828125 L 789.117188 385.289062 L 803.390625 344.515625 L 819.703125 313.9375 L 840.09375 285.398438 L 858.445312 265.011719 L 868.640625 254.820312 L 891.070312 236.472656 L 919.617188 218.125 L 962.4375 199.777344 L 1001.179688 189.585938 Z M 817.664062 562.644531 L 819.703125 572.835938 L 831.9375 595.261719 L 852.328125 623.800781 L 874.757812 646.226562 L 903.304688 668.648438 L 933.890625 686.996094 L 966.515625 699.226562 L 1007.296875 709.421875 L 1021.570312 711.457031 L 1080.703125 711.457031 L 1115.367188 703.304688 L 1141.875 693.113281 L 1174.5 676.804688 L 1198.96875 660.496094 L 1229.554688 633.992188 L 1243.828125 617.683594 L 1245.867188 611.570312 L 1235.671875 609.53125 L 1217.320312 617.683594 L 1178.578125 646.226562 L 1152.070312 660.496094 L 1119.445312 670.6875 L 1097.015625 670.6875 L 1076.625 664.570312 L 1072.546875 660.496094 L 1070.507812 650.300781 L 1094.976562 644.1875 L 1125.5625 633.992188 L 1137.796875 625.839844 L 1145.953125 615.644531 L 1147.992188 607.492188 L 1133.71875 609.53125 L 1119.445312 613.609375 L 1090.898438 621.761719 L 1060.3125 625.839844 L 1052.15625 627.878906 L 1041.960938 625.839844 L 1017.492188 633.992188 L 993.023438 648.261719 L 976.710938 652.339844 L 948.164062 652.339844 L 925.734375 646.226562 L 891.070312 627.878906 L 866.601562 611.570312 L 825.820312 570.796875 Z M 817.664062 562.644531 " fill-opacity="1" fill-rule="nonzero"/><path fill="#c97030" d="M 1184.695312 173.277344 L 1217.320312 177.355469 L 1256.0625 189.585938 L 1262.179688 193.664062 L 1262.179688 201.816406 L 1258.101562 203.855469 L 1217.320312 203.855469 L 1217.320312 207.933594 L 1225.476562 209.972656 L 1225.476562 216.085938 L 1221.398438 218.125 L 1203.046875 218.125 L 1190.8125 214.050781 L 1180.617188 209.972656 L 1162.265625 212.011719 L 1101.09375 254.820312 L 1070.507812 271.128906 L 1056.234375 305.785156 L 1044 324.132812 L 1041.960938 330.246094 L 1041.960938 362.863281 L 1052.15625 360.824219 L 1060.3125 350.632812 L 1068.46875 309.863281 L 1082.742188 289.476562 L 1094.976562 279.28125 L 1109.25 275.207031 L 1127.601562 277.246094 L 1143.914062 285.398438 L 1156.148438 299.667969 L 1160.226562 311.898438 L 1160.226562 330.246094 L 1152.070312 352.671875 L 1137.796875 373.058594 L 1119.445312 387.328125 L 1103.132812 389.367188 L 1107.210938 399.558594 L 1119.445312 407.710938 L 1129.640625 417.90625 L 1137.796875 424.019531 L 1137.796875 428.097656 L 1143.914062 430.136719 L 1150.03125 440.328125 L 1152.070312 450.523438 L 1152.070312 546.335938 L 1150.03125 572.835938 L 1141.875 568.757812 L 1139.835938 560.605469 L 1139.835938 448.484375 L 1133.71875 436.253906 L 1121.484375 426.058594 L 1099.054688 409.75 L 1092.9375 397.519531 L 1092.9375 385.289062 L 1103.132812 368.980469 L 1105.171875 377.132812 L 1119.445312 375.09375 L 1135.757812 360.824219 L 1147.992188 336.363281 L 1150.03125 318.015625 L 1143.914062 301.707031 L 1129.640625 289.476562 L 1125.5625 287.4375 L 1107.210938 287.4375 L 1088.859375 295.589844 L 1078.664062 313.9375 L 1072.546875 346.554688 L 1060.3125 366.941406 L 1054.195312 373.058594 L 1046.039062 375.09375 L 1015.453125 375.09375 L 1011.375 371.019531 L 1027.6875 362.863281 L 1029.726562 360.824219 L 1031.765625 328.207031 L 1044 307.824219 L 1060.3125 271.128906 L 1078.664062 254.820312 L 1101.09375 242.589844 L 1129.640625 222.203125 L 1152.070312 207.933594 L 1166.34375 199.777344 L 1182.65625 199.777344 L 1198.96875 205.894531 L 1205.085938 205.894531 L 1203.046875 199.777344 L 1211.203125 195.703125 L 1229.554688 195.703125 L 1223.4375 189.585938 L 1205.085938 185.507812 L 1174.5 185.507812 L 1156.148438 191.625 L 1129.640625 201.816406 L 1090.898438 220.164062 L 1058.273438 238.511719 L 1041.960938 250.742188 L 1029.726562 269.089844 L 1019.53125 285.398438 L 997.101562 326.171875 L 980.789062 368.980469 L 976.710938 403.636719 L 966.515625 438.292969 L 966.515625 554.488281 L 960.398438 585.066406 L 948.164062 627.878906 L 940.007812 625.839844 L 948.164062 589.144531 L 954.28125 564.683594 L 956.320312 548.375 L 956.320312 519.832031 L 954.28125 456.636719 L 958.359375 428.097656 L 966.515625 401.597656 L 974.671875 350.632812 L 1007.296875 285.398438 L 1029.726562 252.78125 L 1044 236.472656 L 1066.429688 222.203125 L 1094.976562 205.894531 L 1133.71875 189.585938 L 1164.304688 177.355469 Z M 1184.695312 173.277344 " fill-opacity="1" fill-rule="nonzero"/><path fill="#b87030" d="M 1141.875 597.300781 L 1152.070312 597.300781 L 1156.148438 601.375 L 1156.148438 615.644531 L 1147.992188 627.878906 L 1131.679688 640.109375 L 1107.210938 650.300781 L 1084.78125 656.417969 L 1084.78125 658.457031 L 1097.015625 660.496094 L 1117.40625 660.496094 L 1147.992188 652.339844 L 1170.421875 640.109375 L 1186.734375 627.878906 L 1213.242188 609.53125 L 1219.359375 605.453125 L 1243.828125 601.375 L 1254.023438 601.375 L 1256.0625 603.414062 L 1256.0625 617.683594 L 1237.710938 638.070312 L 1219.359375 656.417969 L 1184.695312 680.878906 L 1158.1875 697.1875 L 1115.367188 711.457031 L 1086.820312 717.574219 L 1052.15625 713.496094 L 1052.15625 711.457031 L 1092.9375 707.382812 L 1133.71875 695.148438 L 1168.382812 678.839844 L 1198.96875 658.457031 L 1229.554688 631.953125 L 1241.789062 617.683594 L 1243.828125 611.570312 L 1231.59375 613.609375 L 1217.320312 619.722656 L 1178.578125 648.261719 L 1152.070312 662.53125 L 1119.445312 672.726562 L 1097.015625 672.726562 L 1076.625 666.609375 L 1070.507812 660.496094 L 1070.507812 650.300781 L 1088.859375 644.1875 L 1125.5625 631.953125 L 1137.796875 623.800781 L 1147.992188 607.492188 L 1121.484375 615.644531 L 1090.898438 623.800781 L 1060.3125 627.878906 L 1052.15625 629.917969 L 1041.960938 627.878906 L 1017.492188 636.03125 L 993.023438 650.300781 L 982.828125 646.226562 L 982.828125 642.148438 L 1011.375 627.878906 L 1021.570312 621.761719 L 1041.960938 615.644531 L 1054.195312 613.609375 L 1090.898438 611.570312 L 1125.5625 603.414062 Z M 1141.875 597.300781 " fill-opacity="1" fill-rule="nonzero"/><path fill="#d07830" d="M 1099.054688 782.808594 L 1113.328125 782.808594 L 1137.796875 788.925781 L 1158.1875 807.269531 L 1168.382812 827.65625 L 1168.382812 854.15625 L 1162.265625 868.429688 L 1147.992188 886.773438 L 1129.640625 896.96875 L 1119.445312 899.007812 L 1092.9375 899.007812 L 1072.546875 890.851562 L 1056.234375 876.582031 L 1048.078125 860.273438 L 1046.039062 854.15625 L 1046.039062 827.65625 L 1056.234375 807.269531 L 1070.507812 793 L 1090.898438 784.847656 Z M 1097.015625 799.117188 L 1082.742188 805.234375 L 1072.546875 815.425781 L 1066.429688 825.617188 L 1064.390625 848.042969 L 1068.46875 862.3125 L 1078.664062 874.542969 L 1086.820312 880.660156 L 1094.976562 882.699219 L 1117.40625 882.699219 L 1131.679688 876.582031 L 1141.875 868.429688 L 1147.992188 854.15625 L 1150.03125 837.851562 L 1143.914062 817.464844 L 1133.71875 807.269531 L 1123.523438 801.15625 L 1115.367188 799.117188 Z M 1097.015625 799.117188 " fill-opacity="1" fill-rule="nonzero"/><path fill="#e07030" d="M 1298.882812 784.847656 L 1349.859375 784.847656 L 1370.25 788.925781 L 1382.484375 795.039062 L 1392.679688 809.308594 L 1394.71875 825.617188 L 1390.640625 841.925781 L 1376.367188 858.234375 L 1372.289062 858.234375 L 1382.484375 878.621094 L 1392.679688 892.890625 L 1392.679688 896.96875 L 1374.328125 896.96875 L 1358.015625 874.542969 L 1353.9375 864.351562 L 1319.273438 866.390625 L 1317.234375 894.929688 L 1315.195312 896.96875 L 1300.921875 896.96875 L 1298.882812 894.929688 Z M 1325.390625 799.117188 L 1317.234375 801.15625 L 1317.234375 846.003906 L 1319.273438 848.042969 L 1355.976562 848.042969 L 1366.171875 843.964844 L 1374.328125 833.773438 L 1376.367188 821.542969 L 1370.25 807.269531 L 1362.09375 801.15625 L 1351.898438 799.117188 Z M 1325.390625 799.117188 " fill-opacity="1" fill-rule="nonzero"/><path fill="#de9256" d="M 817.664062 784.847656 L 836.015625 784.847656 L 846.210938 801.15625 L 862.523438 837.851562 L 870.679688 856.195312 L 876.796875 870.464844 L 882.914062 878.621094 L 889.03125 896.96875 L 870.679688 896.96875 L 860.484375 882.699219 L 858.445312 872.503906 L 803.390625 872.503906 L 797.273438 874.542969 L 787.078125 894.929688 L 785.039062 896.96875 L 766.6875 896.96875 L 770.765625 884.738281 L 783 860.273438 L 791.15625 839.886719 L 811.546875 795.039062 Z M 823.78125 807.269531 L 805.429688 850.082031 L 805.429688 856.195312 L 846.210938 858.234375 L 850.289062 852.121094 L 831.9375 809.308594 Z M 823.78125 807.269531 " fill-opacity="1" fill-rule="nonzero"/><path fill="#e59552" d="M 701.4375 782.808594 L 725.90625 784.847656 L 746.296875 793 L 750.375 797.078125 L 748.335938 807.269531 L 738.140625 809.308594 L 717.75 801.15625 L 699.398438 801.15625 L 685.125 807.269531 L 674.929688 817.464844 L 670.851562 823.578125 L 668.8125 833.773438 L 668.8125 852.121094 L 674.929688 866.390625 L 689.203125 878.621094 L 697.359375 880.660156 L 719.789062 880.660156 L 732.023438 876.582031 L 734.0625 846.003906 L 746.296875 841.925781 L 752.414062 848.042969 L 752.414062 886.773438 L 738.140625 894.929688 L 721.828125 899.007812 L 693.28125 899.007812 L 672.890625 890.851562 L 658.617188 878.621094 L 648.421875 858.234375 L 648.421875 825.617188 L 658.617188 805.234375 L 674.929688 790.960938 Z M 701.4375 782.808594 " fill-opacity="1" fill-rule="nonzero"/><path fill="#c87030" d="M 1194.890625 784.847656 L 1276.453125 784.847656 L 1276.453125 799.117188 L 1213.242188 801.15625 L 1213.242188 837.851562 L 1237.710938 837.851562 L 1262.179688 839.886719 L 1266.257812 841.925781 L 1266.257812 850.082031 L 1262.179688 852.121094 L 1215.28125 854.15625 L 1213.242188 890.851562 L 1211.203125 896.96875 L 1198.96875 896.96875 L 1192.851562 892.890625 L 1192.851562 786.886719 Z M 1194.890625 784.847656 " fill-opacity="1" fill-rule="nonzero"/><path fill="#e09057" d="M 907.382812 784.847656 L 925.734375 784.847656 L 925.734375 880.660156 L 984.867188 880.660156 L 988.945312 890.851562 L 986.90625 896.96875 L 907.382812 896.96875 Z M 907.382812 784.847656 " fill-opacity="1" fill-rule="nonzero"/><path fill="#ba7030" d="M 1172.460938 448.484375 L 1239.75 448.484375 L 1309.078125 450.523438 L 1311.117188 452.5625 L 1311.117188 474.984375 L 1307.039062 503.523438 L 1298.882812 536.140625 L 1290.726562 556.527344 L 1274.414062 589.144531 L 1268.296875 595.261719 L 1262.179688 593.222656 L 1264.21875 583.027344 L 1280.53125 554.488281 L 1290.726562 523.910156 L 1298.882812 487.214844 L 1300.921875 460.714844 L 1168.382812 458.675781 L 1168.382812 450.523438 Z M 1172.460938 448.484375 " fill-opacity="1" fill-rule="nonzero"/><path fill="#c86030" d="M 1423.265625 784.847656 L 1437.539062 784.847656 L 1439.578125 786.886719 L 1439.578125 892.890625 L 1435.5 896.96875 L 1421.226562 896.96875 L 1419.1875 894.929688 L 1419.1875 788.925781 Z M 1423.265625 784.847656 " fill-opacity="1" fill-rule="nonzero"/><path fill="#c97c4f" d="M 1168.382812 222.203125 L 1182.65625 224.242188 L 1186.734375 226.28125 L 1186.734375 230.359375 L 1196.929688 234.433594 L 1213.242188 246.667969 L 1235.671875 267.050781 L 1249.945312 283.359375 L 1262.179688 299.667969 L 1278.492188 326.171875 L 1294.804688 358.789062 L 1294.804688 364.902344 L 1282.570312 362.863281 L 1272.375 338.402344 L 1258.101562 313.9375 L 1241.789062 291.515625 L 1223.4375 271.128906 L 1207.125 256.859375 L 1174.5 232.394531 L 1166.34375 224.242188 Z M 1168.382812 222.203125 " fill-opacity="1" fill-rule="nonzero"/><path fill="#da9c66" d="M 760.570312 939.777344 L 766.6875 939.777344 L 770.765625 998.894531 L 766.6875 1002.972656 L 756.492188 1000.933594 L 754.453125 994.820312 L 754.453125 976.472656 L 721.828125 978.511719 L 721.828125 998.894531 L 719.789062 1002.972656 L 709.59375 1002.972656 L 707.554688 988.703125 L 709.59375 941.816406 L 721.828125 941.816406 L 721.828125 966.277344 L 754.453125 966.277344 L 754.453125 947.933594 L 756.492188 941.816406 Z M 760.570312 939.777344 " fill-opacity="1" fill-rule="nonzero"/><path fill="#aa6820" d="M 1107.210938 472.945312 L 1109.25 472.945312 L 1109.25 530.027344 L 1115.367188 554.488281 L 1119.445312 580.992188 L 1119.445312 591.183594 L 1111.289062 591.183594 L 1099.054688 521.871094 L 1099.054688 509.640625 L 1092.9375 511.679688 L 1082.742188 538.179688 L 1080.703125 554.488281 L 1088.859375 583.027344 L 1094.976562 595.261719 L 1092.9375 601.375 L 1086.820312 601.375 L 1074.585938 572.835938 L 1070.507812 556.527344 L 1070.507812 540.21875 L 1080.703125 515.757812 L 1101.09375 481.101562 Z M 1107.210938 472.945312 " fill-opacity="1" fill-rule="nonzero"/><path fill="#c07835" d="M 1068.46875 939.777344 L 1076.625 941.816406 L 1078.664062 952.007812 L 1076.625 966.277344 L 1109.25 966.277344 L 1111.289062 941.816406 L 1119.445312 939.777344 L 1121.484375 941.816406 L 1121.484375 1002.972656 L 1111.289062 1000.933594 L 1109.25 978.511719 L 1076.625 976.472656 L 1076.625 1000.933594 L 1066.429688 1002.972656 L 1064.390625 998.894531 L 1064.390625 941.816406 Z M 1068.46875 939.777344 " fill-opacity="1" fill-rule="nonzero"/><path fill="#d08c67" d="M 952.242188 939.777344 L 970.59375 939.777344 L 982.828125 945.894531 L 993.023438 956.085938 L 995.0625 962.203125 L 995.0625 982.585938 L 982.828125 996.859375 L 972.632812 1002.972656 L 950.203125 1002.972656 L 937.96875 996.859375 L 929.8125 986.664062 L 927.773438 980.550781 L 927.773438 964.242188 L 935.929688 947.933594 Z M 956.320312 947.933594 L 944.085938 956.085938 L 940.007812 964.242188 L 940.007812 984.625 L 948.164062 992.78125 L 966.515625 996.859375 L 976.710938 992.78125 L 982.828125 986.664062 L 984.867188 980.550781 L 984.867188 964.242188 L 976.710938 952.007812 L 968.554688 947.933594 Z M 956.320312 947.933594 " fill-opacity="1" fill-rule="nonzero"/><path fill="#c07030" d="M 1211.203125 939.777344 L 1229.554688 939.777344 L 1243.828125 945.894531 L 1251.984375 954.046875 L 1251.984375 970.355469 L 1243.828125 980.550781 L 1245.867188 990.742188 L 1251.984375 1002.972656 L 1239.75 1000.933594 L 1229.554688 986.664062 L 1213.242188 986.664062 L 1211.203125 1002.972656 L 1201.007812 1002.972656 L 1201.007812 941.816406 Z M 1213.242188 947.933594 L 1211.203125 949.96875 L 1211.203125 974.433594 L 1213.242188 976.472656 L 1231.59375 976.472656 L 1241.789062 970.355469 L 1241.789062 954.046875 L 1231.59375 947.933594 Z M 1213.242188 947.933594 " fill-opacity="1" fill-rule="nonzero"/><path fill="#db975e" d="M 654.539062 939.777344 L 681.046875 941.816406 L 693.28125 949.96875 L 697.359375 958.125 L 695.320312 972.394531 L 685.125 982.585938 L 676.96875 984.625 L 656.578125 984.625 L 654.539062 1002.972656 L 644.34375 1002.972656 L 644.34375 941.816406 Z M 656.578125 949.96875 L 654.539062 952.007812 L 654.539062 974.433594 L 656.578125 976.472656 L 679.007812 976.472656 L 685.125 970.355469 L 685.125 954.046875 L 679.007812 949.96875 Z M 656.578125 949.96875 " fill-opacity="1" fill-rule="nonzero"/><path fill="#c07030" d="M 1154.109375 939.777344 L 1184.695312 939.777344 L 1184.695312 947.933594 L 1174.5 949.96875 L 1150.03125 949.96875 L 1150.03125 968.316406 L 1180.617188 968.316406 L 1180.617188 976.472656 L 1150.03125 976.472656 L 1150.03125 994.820312 L 1186.734375 994.820312 L 1186.734375 1002.972656 L 1139.835938 1002.972656 L 1139.835938 941.816406 Z M 1154.109375 939.777344 " fill-opacity="1" fill-rule="nonzero"/><path fill="#b86028" d="M 1343.742188 939.777344 L 1366.171875 939.777344 L 1382.484375 945.894531 L 1390.640625 958.125 L 1388.601562 974.433594 L 1376.367188 982.585938 L 1370.25 984.625 L 1349.859375 984.625 L 1347.820312 1002.972656 L 1337.625 1002.972656 L 1337.625 945.894531 Z M 1355.976562 947.933594 L 1347.820312 952.007812 L 1347.820312 974.433594 L 1349.859375 976.472656 L 1370.25 976.472656 L 1376.367188 974.433594 L 1378.40625 970.355469 L 1378.40625 954.046875 L 1368.210938 947.933594 Z M 1355.976562 947.933594 " fill-opacity="1" fill-rule="nonzero"/><path fill="#be6830" d="M 1288.6875 941.816406 L 1298.882812 941.816406 L 1309.078125 962.203125 L 1327.429688 1000.933594 L 1327.429688 1002.972656 L 1317.234375 1002.972656 L 1311.117188 992.78125 L 1311.117188 988.703125 L 1278.492188 990.742188 L 1270.335938 1002.972656 L 1260.140625 1002.972656 L 1264.21875 990.742188 L 1282.570312 952.007812 Z M 1290.726562 954.046875 L 1280.53125 976.472656 L 1280.53125 980.550781 L 1305 980.550781 L 1302.960938 968.316406 L 1296.84375 954.046875 Z M 1290.726562 954.046875 " fill-opacity="1" fill-rule="nonzero"/><path fill="#d39263" d="M 858.445312 939.777344 L 878.835938 939.777344 L 886.992188 943.855469 L 882.914062 952.007812 L 874.757812 949.96875 L 858.445312 949.96875 L 854.367188 952.007812 L 854.367188 962.203125 L 880.875 972.394531 L 889.03125 978.511719 L 889.03125 992.78125 L 886.992188 996.859375 L 882.914062 996.859375 L 882.914062 1000.933594 L 860.484375 1005.011719 L 842.132812 998.894531 L 844.171875 992.78125 L 856.40625 994.820312 L 872.71875 994.820312 L 876.796875 990.742188 L 874.757812 980.550781 L 848.25 972.394531 L 842.132812 966.277344 L 842.132812 952.007812 L 852.328125 941.816406 Z M 858.445312 939.777344 " fill-opacity="1" fill-rule="nonzero"/><path fill="#ca886a" d="M 1007.296875 939.777344 L 1052.15625 939.777344 L 1054.195312 947.933594 L 1052.15625 949.96875 L 1033.804688 949.96875 L 1033.804688 1000.933594 L 1023.609375 1002.972656 L 1021.570312 1000.933594 L 1021.570312 949.96875 L 1001.179688 949.96875 L 1001.179688 941.816406 Z M 1007.296875 939.777344 " fill-opacity="1" fill-rule="nonzero"/><path fill="#b86028" d="M 1396.757812 941.816406 L 1406.953125 941.816406 L 1423.265625 968.316406 L 1427.34375 968.316406 L 1441.617188 945.894531 L 1445.695312 941.816406 L 1453.851562 941.816406 L 1449.773438 952.007812 L 1433.460938 978.511719 L 1429.382812 1002.972656 L 1421.226562 1002.972656 L 1419.1875 998.894531 L 1417.148438 976.472656 L 1400.835938 954.046875 Z M 1396.757812 941.816406 " fill-opacity="1" fill-rule="nonzero"/><path fill="#d6935f" d="M 774.84375 939.777344 L 787.078125 941.816406 L 795.234375 952.007812 L 803.390625 966.277344 L 803.390625 970.355469 L 813.585938 960.164062 L 825.820312 943.855469 L 833.976562 941.816406 L 827.859375 956.085938 L 813.585938 980.550781 L 811.546875 1000.933594 L 807.46875 1002.972656 L 801.351562 998.894531 L 799.3125 978.511719 L 791.15625 966.277344 L 774.84375 941.816406 Z M 774.84375 939.777344 " fill-opacity="1" fill-rule="nonzero"/><path fill="#d69364" d="M 903.304688 941.816406 L 913.5 943.855469 L 913.5 1000.933594 L 903.304688 1002.972656 Z M 903.304688 941.816406 " fill-opacity="1" fill-rule="nonzero"/><path fill="#8a4000" d="M 1017.492188 493.332031 L 1025.648438 495.371094 L 1027.6875 507.601562 L 1021.570312 513.71875 L 1011.375 511.679688 L 1009.335938 509.640625 L 1009.335938 499.449219 Z M 1017.492188 493.332031 " fill-opacity="1" fill-rule="nonzero"/><path fill="#a05800" d="M 1019.53125 464.792969 L 1033.804688 466.832031 L 1031.765625 481.101562 L 1023.609375 483.140625 L 1015.453125 479.0625 L 1017.492188 466.832031 Z M 1019.53125 464.792969 " fill-opacity="1" fill-rule="nonzero"/><path fill="#905400" d="M 1013.414062 527.988281 L 1023.609375 530.027344 L 1025.648438 540.21875 L 1021.570312 544.296875 L 1011.375 542.257812 L 1009.335938 532.066406 Z M 1013.414062 527.988281 " fill-opacity="1" fill-rule="nonzero"/><path fill="#9c5820" d="M 1029.726562 434.214844 L 1039.921875 434.214844 L 1041.960938 444.40625 L 1037.882812 450.523438 L 1027.6875 450.523438 L 1027.6875 436.253906 Z M 1029.726562 434.214844 " fill-opacity="1" fill-rule="nonzero"/><path fill="#905400" d="M 1015.453125 558.566406 L 1025.648438 560.605469 L 1025.648438 570.796875 L 1015.453125 572.835938 L 1013.414062 560.605469 Z M 1015.453125 558.566406 " fill-opacity="1" fill-rule="nonzero"/><path fill="#ae6820" d="M 1056.234375 385.289062 L 1068.46875 385.289062 L 1070.507812 391.402344 L 1066.429688 397.519531 L 1056.234375 395.480469 L 1054.195312 389.367188 Z M 1056.234375 385.289062 " fill-opacity="1" fill-rule="nonzero"/><path fill="#ab6820" d="M 1044 409.75 L 1054.195312 411.789062 L 1052.15625 421.984375 L 1046.039062 424.019531 L 1039.921875 417.90625 Z M 1044 409.75 " fill-opacity="1" fill-rule="nonzero"/><path fill="#a87820" d="M 1019.53125 589.144531 L 1027.6875 591.183594 L 1027.6875 599.335938 L 1021.570312 599.335938 Z M 1019.53125 589.144531 " fill-opacity="1" fill-rule="nonzero"/><path fill="#fafbf4" d="M 732.023438 986.664062 L 740.179688 986.664062 L 736.101562 994.820312 L 729.984375 992.78125 Z M 732.023438 986.664062 " fill-opacity="1" fill-rule="nonzero"/></svg>